#!OML:ASF F:\VICON\USERDATA\INSTALL\rory3\rory3.ASF
:FULLY-SPECIFIED
:DEGREES
188
root 0.443382 17.9201 3.34097 -2.42885 0.268076 -1.34546
lowerback 8.26939 -1.30722 -1.99384
upperback -0.646017 -1.82028 2.33083
thorax -5.17792 -0.811269 3.78497
lowerneck -16.2742 -2.26179 -1.34072
upperneck 26.6399 -2.30826 -1.93852
head 11.3446 -1.43683 -0.817254
rclavicle -2.0547e-014 3.22031e-014
rhumerus -42.4703 -38.1199 -61.9049
rradius 17.0565
rwrist 16.3912
rhand -18.2768 25.0142
rfingers 7.12502
rthumb 8.00316 -4.8143
lclavicle -2.0547e-014 3.22031e-014
lhumerus -25.6767 3.80165 80.7565
lradius 28.5023
lwrist 5.95666
lhand -28.8749 30.0614
lfingers 7.12502
lthumb -2.23088 60.0295
rfemur -24.4809 5.66604 24.4814
rtibia 27.83
rfoot -3.34755 -5.85662
rtoes 8.94836
lfemur 9.96356 -5.06746 -22.4663
ltibia 39.1115
lfoot -0.54523 -11.2719
ltoes -13.9271
189
root 0.428553 17.9662 3.52877 -2.42387 0.171909 -1.4232
lowerback 8.25146 -1.29102 -1.8522
upperback -0.68303 -1.78292 2.35262
thorax -5.21302 -0.795299 3.72349
lowerneck -16.387 -2.20604 -1.38396
upperneck 26.6888 -2.21191 -1.94096
head 11.3871 -1.39822 -0.799426
rclavicle 3.76604e-016 2.62396e-014
rhumerus -42.2844 -37.813 -62.1309
rradius 17.0474
rwrist 16.0304
rhand -18.5545 23.9825
rfingers 7.12502
rthumb 7.7352 -5.85604
lclavicle 3.76604e-016 2.62396e-014
lhumerus -26.0541 4.34103 80.8441
lradius 28.1953
lwrist 5.86554
lhand -28.6615 29.1317
lfingers 7.12502
lthumb -2.02476 59.1018
rfemur -23.6428 5.43944 24.7861
rtibia 27.5389
rfoot -2.77743 -5.44821
rtoes 2.51984
lfemur 8.4123 -4.69627 -22.1706
ltibia 41.3869
lfoot 3.74482 -12.9126
ltoes -23.6044
190
root 0.405629 18.0266 3.71632 -2.45828 0.159857 -1.77751
lowerback 8.31265 -1.27871 -1.51301
upperback -0.705864 -1.72912 2.41557
thorax -5.28349 -0.775805 3.59389
lowerneck -16.3026 -2.1789 -1.32268
upperneck 26.5473 -2.20697 -1.89431
head 11.3158 -1.38302 -0.788522
rclavicle 1.49865e-015 -1.90833e-014
rhumerus -42.1607 -37.3169 -62.604
rradius 17.3022
rwrist 15.2659
rhand -18.5667 23.63
rfingers 7.12502
rthumb 7.72337 -6.20893
lclavicle 1.49865e-015 -1.90833e-014
lhumerus -26.4991 4.40009 80.9476
lradius 28.0037
lwrist 5.95846
lhand -28.873 28.301
lfingers 7.12502
lthumb -2.22907 58.2691
rfemur -22.7358 5.41911 25.3739
rtibia 27.2121
rfoot -2.72479 -5.32775
rtoes -0.0545359
lfemur 6.34785 -4.48878 -21.5785
ltibia 43.7995
lfoot 5.6314 -20.7962
ltoes -37.9137
191
root 0.386007 18.0591 3.89613 -2.66882 0.378604 -2.34964
lowerback 8.58584 -1.34114 -0.915295
upperback -0.526173 -1.74733 2.52701
thorax -5.26213 -0.802074 3.38009
lowerneck -16.626 -2.16652 -1.29141
upperneck 26.2736 -2.2145 -1.81417
head 11.2765 -1.37172 -0.766265
rclavicle 5.50113e-015 7.55382e-015
rhumerus -41.6936 -37.4515 -62.9912
rradius 17.3854
rwrist 15.0969
rhand -17.976 23.6009
rfingers 7.12502
rthumb 8.29347 -6.21625
lclavicle 5.50113e-015 7.55382e-015
lhumerus -26.4367 4.54454 81.0119
lradius 27.4164
lwrist 5.76634
lhand -29.3282 25.6154
lfingers 7.12502
lthumb -2.66868 55.5785
rfemur -21.6734 5.46452 26.1384
rtibia 26.8357
rfoot -2.75084 -5.45876
rtoes 1.75887
lfemur 4.81814 -4.52052 -20.6906
ltibia 46.2304
lfoot -10.1288 -30.1884
ltoes -48.1341
192
root 0.36789 18.068 4.07302 -2.71994 0.322793 -2.89458
lowerback 8.73128 -1.29817 -0.380846
upperback -0.413142 -1.62709 2.6798
thorax -5.24383 -0.756351 3.22518
lowerneck -17.0886 -2.15724 -1.43096
upperneck 26.2019 -2.21063 -1.59757
head 11.3463 -1.35568 -0.668583
rclavicle -2.3455e-014 2.62396e-014
rhumerus -41.0193 -37.1986 -63.6702
rradius 17.5465
rwrist 14.606
rhand -17.2816 22.5566
rfingers 7.12502
rthumb 8.96359 -7.23297
lclavicle -2.3455e-014 2.62396e-014
lhumerus -26.3029 4.58961 81.2005
lradius 26.7444
lwrist 5.65153
lhand -29.2795 24.5171
lfingers 7.12502
lthumb -2.62161 54.4807
rfemur -20.8238 5.67205 26.8985
rtibia 26.5452
rfoot -2.64925 -5.62214
rtoes 4.1933
lfemur 3.69666 -4.4622 -19.838
ltibia 48.538
lfoot -29.3948 -27.7488
ltoes -41.2299
193
root 0.350086 18.0834 4.24877 -2.65011 0.207418 -3.34824
lowerback 8.73182 -1.23491 0.0535375
upperback -0.468192 -1.48955 2.80352
thorax -5.31771 -0.697367 3.09338
lowerneck -16.9885 -2.20316 -1.47353
upperneck 26.0275 -2.28749 -1.52283
head 11.2617 -1.38434 -0.641471
rclavicle -1.43249e-014 -2.26615e-014
rhumerus -40.4714 -35.9063 -64.6946
rradius 17.6549
rwrist 13.2036
rhand -17.8702 23.1851
rfingers 7.12502
rthumb 8.39563 -6.62808
lclavicle -1.43249e-014 -2.26615e-014
lhumerus -26.6538 4.22689 81.4927
lradius 26.6992
lwrist 5.8338
lhand -28.1501 28.8355
lfingers 7.12502
lthumb -1.53089 58.8097
rfemur -20.2114 5.72961 27.5883
rtibia 26.5258
rfoot -2.7839 -5.77405
rtoes 5.13754
lfemur 2.74422 -4.54687 -19.1742
ltibia 50.7422
lfoot -35.9325 -23.364
ltoes -31.9613
194
root 0.339558 18.0996 4.41435 -2.74043 0.308823 -3.62179
lowerback 8.96 -1.24853 0.436382
upperback -0.464082 -1.46132 2.82748
thorax -5.45282 -0.692373 2.90607
lowerneck -16.7577 -2.27432 -1.36939
upperneck 25.6237 -2.38842 -1.65496
head 11.06 -1.43503 -0.712644
rclavicle -5.55199e-015 -7.55382e-015
rhumerus -39.9399 -34.9972 -65.5715
rradius 17.8727
rwrist 12.5041
rhand -18.6062 23.5199
rfingers 7.12502
rthumb 7.68525 -6.32048
lclavicle -5.55199e-015 -7.55382e-015
lhumerus -26.9039 4.08346 81.7273
lradius 26.5534
lwrist 5.65255
lhand -26.8864 34.9003
lfingers 7.12502
lthumb -0.310339 64.8798
rfemur -19.5335 5.31598 28.0653
rtibia 26.6309
rfoot -3.30615 -5.59374
rtoes 4.88515
lfemur 1.81656 -4.80751 -18.7964
ltibia 52.9426
lfoot -34.2285 -25.2239
ltoes -38.4597
195
root 0.328634 18.0989 4.5757 -2.94777 0.11376 -4.10486
lowerback 9.27746 -1.16492 0.963853
upperback -0.263173 -1.28467 2.92323
thorax -5.43887 -0.619387 2.68991
lowerneck -17.1837 -2.26241 -1.1906
upperneck 25.5325 -2.37756 -1.78546
head 11.1047 -1.42847 -0.793611
rclavicle 1.70303e-014 -3.57812e-015
rhumerus -39.0772 -34.4714 -66.5211
rradius 18.0997
rwrist 12.3341
rhand -19.3279 23.2707
rfingers 7.12502
rthumb 6.98863 -6.59397
lclavicle 1.70303e-014 -3.57812e-015
lhumerus -26.8669 3.77682 81.9952
lradius 26.2517
lwrist 5.54456
lhand -27.7374 34.3413
lfingers 7.12502
lthumb -1.13229 64.318
rfemur -18.7259 5.23817 28.7763
rtibia 26.6505
rfoot -3.85982 -5.41522
rtoes 5.59056
lfemur 0.566147 -4.41199 -18.0481
ltibia 55.2936
lfoot -9.11952 -33.2353
ltoes -45.9999
196
root 0.311229 18.1109 4.74122 -3.02196 -0.19218 -4.41072
lowerback 9.42449 -1.01844 1.16234
upperback -0.184198 -1.0605 3.01527
thorax -5.44955 -0.513123 2.64595
lowerneck -17.1647 -2.22745 -1.16425
upperneck 25.3721 -2.35655 -1.71221
head 11.0413 -1.40627 -0.765718
rclavicle -2.59787e-014 3.02153e-014
rhumerus -38.0927 -32.9634 -68.0481
rradius 18.6601
rwrist 11.5919
rhand -20.59 20.542
rfingers 7.12502
rthumb 5.77018 -9.35944
lclavicle -2.59787e-014 3.02153e-014
lhumerus -26.9034 3.25012 82.3418
lradius 25.7641
lwrist 5.72383
lhand -29.1254 27.8797
lfingers 7.12502
lthumb -2.47277 57.8451
rfemur -18.0317 5.45541 29.2873
rtibia 26.6898
rfoot -3.79009 -5.21572
rtoes 9.29995
lfemur -1.2352 -3.59382 -17.395
ltibia 57.6791
lfoot 17.8327 -19.5436
ltoes 0.732341
